<?xml version="1.0" encoding="UTF-8"?>
<svg version="1.1" viewBox="0 0 488.59 91.63" xmlns="http://www.w3.org/2000/svg"><rect x=".49006" y=".73509" width="489.33" height="91.641" display="none" fill="#f9f9f9"/><rect x="4.2564e-10" y="-4.2627e-9" width="489.33" height="91.641" display="none" fill="#1a1a1a"/><g fill="#b3b3b3" data-name="Layer 2"><g fill="#b3b3b3" data-name="Layer 1"><path transform="translate(-6.97 -11.57)" d="M75,94.11a51.2,51.2,0,0,1-5.79,3.18,42.73,42.73,0,0,1-8.56,3,46.53,46.53,0,0,1-10.8,1.18,45.86,45.86,0,0,1-17.77-3.55,40.11,40.11,0,0,1-22.14-23A45.78,45.78,0,0,1,7,58.45,49.34,49.34,0,0,1,10,40.79,40.5,40.5,0,0,1,32.29,17.48a42.6,42.6,0,0,1,17-3.31,44.2,44.2,0,0,1,13.93,2.07A52.58,52.58,0,0,1,73.92,21L69.31,31.88a46,46,0,0,0-8.62-4.6,28.37,28.37,0,0,0-11.1-2.13,28.68,28.68,0,0,0-11.81,2.48,30.61,30.61,0,0,0-9.8,7,33.26,33.26,0,0,0-9.09,23.26,36.91,36.91,0,0,0,2.19,12.81,30.82,30.82,0,0,0,6.25,10.39A28.66,28.66,0,0,0,37.19,88a32.74,32.74,0,0,0,13,2.48,31.22,31.22,0,0,0,11.57-2A36.34,36.34,0,0,0,70.14,84Z"/><path transform="translate(-6.97 -11.57)" d="m89.5 57.86a42.42 42.42 0 0 1 3.36-16.77 44.72 44.72 0 0 1 23.26-23.5 43.27 43.27 0 0 1 33.72 0 45.1 45.1 0 0 1 23.49 23.5 43.28 43.28 0 0 1 0 33.77 44 44 0 0 1-23.33 23.2 42.72 42.72 0 0 1-16.88 3.37 43.08 43.08 0 0 1-43.62-43.57zm11.81 0a32.75 32.75 0 0 0 2.42 12.69 31.76 31.76 0 0 0 6.85 10.33 32.78 32.78 0 0 0 10.15 7 31.81 31.81 0 0 0 24.91 0 31.87 31.87 0 0 0 10-7 32.87 32.87 0 0 0 6.79-10.33 33.73 33.73 0 0 0 0-25.39 34.49 34.49 0 0 0-6.79-10.45 30.65 30.65 0 0 0-10.15-7.08 31 31 0 0 0-12.46-2.54 30.66 30.66 0 0 0-12.58 2.6 31.67 31.67 0 0 0-16.82 17.53 33.76 33.76 0 0 0-2.32 12.64z"/><path transform="translate(-6.97 -11.57)" d="M270.51,103.2l-66-66.95,3.31.83.24,63.4H196.59v-88h.59L262.36,79.7l-2.6-.59-.23-64H271V103.2Z"/><path transform="translate(-6.97 -11.57)" d="m296.13 15.11h50.65v11h-39.2v27.14h34.36v11h-34.36v36.25h-11.45z"/><path transform="translate(-6.97 -11.57)" d="M350,100.48l37.2-88.91h.7l37.32,88.91H412.08l-27.87-71,8.15-5.31-31.05,76.27Zm21.85-32.35h31.76l3.78,9.92H368.51Z"/><path transform="translate(-6.97 -11.57)" d="M463.79,15.11q12.87,0,20.25,5.26t7.38,16.23a22,22,0,0,1-3.07,11.81,21.26,21.26,0,0,1-8.56,7.79,32.31,32.31,0,0,1-12.92,3.31l-1.66-6a43.33,43.33,0,0,1,15.47,3.07,26.37,26.37,0,0,1,10.86,7.91,18.81,18.81,0,0,1,4,12,23.83,23.83,0,0,1-2.31,10.92,20,20,0,0,1-6.37,7.44,28.29,28.29,0,0,1-9.09,4.25,40.13,40.13,0,0,1-10.57,1.36H441.83V15.11Zm2.37,37.32q7.08,0,10.27-3.9a14.48,14.48,0,0,0,3.19-9.45q0-6.84-4.14-9.92t-11.09-3.07h-11.1V52.43Zm.47,37.42a25.56,25.56,0,0,0,8.74-1.41,13.41,13.41,0,0,0,6.2-4.43,11.83,11.83,0,0,0,2.3-7.38,10.94,10.94,0,0,0-2.66-7.79,15,15,0,0,0-6.79-4.08,29.63,29.63,0,0,0-8.5-1.24H453.29V89.85Z"/></g></g></svg>
